<?xml version="1.0" encoding="UTF-8"?>
<!-- Generator: Adobe Illustrator 23.0.4, SVG Export Plug-In . SVG Version: 6.00 Build 0)  -->
<svg version="1.1" id="Layer_1" xmlns="http://www.w3.org/2000/svg" xmlns:xlink="http://www.w3.org/1999/xlink" x="0px" y="0px" width="520px" height="430px" viewBox="0 0 520 430" style="enable-background:new 0 0 520 430;" xml:space="preserve">
<g>
	<g>
		<path d="M172.3,89.7C273.6,44,362.2,71.6,409.5,94.7c4.4,2.2,9.8-0.1,11.3-4.7l13.8-41.5c1.6-4.9-0.6-10.1-5.2-12.4    c-58.4-28.5-197-74-350,33.7c-4,2.8-5.4,8-3.4,12.4l32.3,72.7c2.2,4.9,7.8,7.3,12.8,5.4c37-13.5,92.9-27.7,150.8-19.4    c-39.2,6.6-70.7,20.5-94.9,35.3c-4.3,2.7-6,8.1-4,12.7c0,0,12.8,29.4,19.9,45.5c1.7,4,7,4.9,10,1.8c7.4-7.9,15.7-13.6,22.4-17.5    c31.3-18.2,74.6-31.6,133.1-28.5c4.6,0.2,8.7-2.6,10.2-7l14.8-44.3c1.5-4.4-0.2-9.3-4.2-11.8c-43.4-27.4-110.2-50.3-207-37.2    L172.3,89.7z"/>
	</g>
	<g>
		<path d="M147.3,428.2h-12.6c-2,0-3.6-1.6-3.6-3.6v-73.1h-31c-2,0-3.6-1.6-3.6-3.6v-11.3c0-2,1.6-3.6,3.6-3.6h81.8    c2,0,3.6,1.6,3.6,3.6v11.3c0,2-1.6,3.6-3.6,3.6h-31v73.1C150.9,426.5,149.3,428.2,147.3,428.2z"/>
		<path d="M65.8,428.2H8.9c-2,0-3.6-1.6-3.6-3.6v-11.3c0-2,1.6-3.6,3.6-3.6h60.3c3.3,0,6-2.7,6-6v-8.2c0-3.3-2.7-6-6-6H29.1    c-11,0-17.5-2-22.4-6.9C2,377.8,0.1,372,0.1,362.1v-2c0-9.8,1.9-15.7,6.5-20.3c4.9-4.9,11.4-6.9,22.4-6.9H83c2,0,3.6,1.6,3.6,3.6    v11.3c0,2-1.6,3.6-3.6,3.6H25.7c-3.3,0-6,2.7-6,6l0,7.7c0,3.3,2.7,6,6,6h40c11,0,17.5,2,22.4,6.9c4.6,4.6,6.5,10.5,6.5,20.3v2.5    c0,9.8-1.9,15.7-6.5,20.3C83.3,426.1,76.8,428.2,65.8,428.2z"/>
		<path d="M363.1,344.3c-7.6-7.6-18.9-11.4-33.6-11.4h-43.6c-2,0-3.6,1.6-3.6,3.6v88.2c0,2,1.6,3.6,3.6,3.6h43.6    c14.7,0,26.1-3.8,33.6-11.4c8.2-8.2,11.1-17.6,11.1-36v-0.7C374.2,361.9,371.3,352.5,363.1,344.3z M354.4,380.9    c0,12.2-0.8,18.1-5.6,22.9c-3.9,3.9-10.2,5.8-19.3,5.8h-27.4v-58.1h27.4c9.1,0,15.4,1.9,19.3,5.8c4.8,4.8,5.6,10.7,5.6,22.9V380.9    z"/>
		<path d="M402.8,428.2h-12.6c-2,0-3.6-1.6-3.6-3.6v-88c0-2,1.6-3.6,3.6-3.6h12.6c2,0,3.6,1.6,3.6,3.6v88    C406.4,426.5,404.8,428.2,402.8,428.2z"/>
		<path d="M273.9,423l-40.6-84.5c-2.1-4.3-6.6-7.1-11.4-7.1c-4.8,0-9.3,2.8-11.4,7.1L170,423c-1.1,2.4,0.6,5.2,3.2,5.2h13.4    c1.9,0,3.6-1.1,4.4-2.8l6.2-13.3h49.6l6.1,13.3c0.8,1.7,2.5,2.8,4.4,2.8h13.4C273.3,428.2,275.1,425.4,273.9,423z M222,356.4    l16.7,38.1h-33.4L222,356.4z"/>
		<path d="M519.5,423l-40.6-84.5c-2.1-4.3-6.6-7.1-11.4-7.1c-4.8,0-9.3,2.8-11.4,7.1L415.6,423c-1.1,2.4,0.6,5.2,3.2,5.2h13.4    c1.9,0,3.6-1.1,4.4-2.8l6.2-13.3h49.6l6.1,13.3c0.8,1.7,2.5,2.8,4.4,2.8h13.4C518.9,428.2,520.7,425.4,519.5,423z M467.6,356.4    l16.7,38.1h-33.4L467.6,356.4z"/>
	</g>
</g>
</svg>